# xmcd
#
# Track frame offsets:
#	150
#	4506
#	21642
#	42781
#	80982
#
# Disc length: 1474 seconds
#
# Revision: 2
# Processed by: cddbd v1.5.2PL0 Copyright (c) Steve Scherf et al.
# Submitted via: audiograbber 1.83.01
#
DISCID=3705c005
DTITLE=Cold Blank Stare - Humanity Will Come Undone
DYEAR=2008
DGENRE=Black Metal
TTITLE0=Mechanized Destruction of Humanity
TTITLE1=Forms of Worship
TTITLE2=Against the Tide
TTITLE3=Humanity Will Come Undone...
TTITLE4=Freezing Moon
EXTD=
EXTT0=
EXTT1=
EXTT2=
EXTT3=
EXTT4=
PLAYORDER=
